<svg version="1.1" xmlns="http://www.w3.org/2000/svg" viewBox="0 0 933.289931555838 856.3829675411728" width="933.289931555838" height="856.3829675411728">
  <!-- svg-source:excalidraw -->
  
  <defs>
    <style class="style-fonts">
      @font-face {
        font-family: "Virgil";
        src: url("https://excalidraw.com/Virgil.woff2");
      }
      @font-face {
        font-family: "Cascadia";
        src: url("https://excalidraw.com/Cascadia.woff2");
      }
    </style>
    
  </defs>
  <rect x="0" y="0" width="933.289931555838" height="856.3829675411728" fill="#ffffff"></rect><g stroke-linecap="round" transform="translate(327.6300553063303 169.09606670878) rotate(0 71 29.666671752929688)"><path d="M14.83 0 M14.83 0 C38.73 -0.89, 64.58 2.85, 127.17 0 M14.83 0 C40.03 -0.84, 64.46 -0.2, 127.17 0 M127.17 0 C138.06 -1.06, 143.81 3.31, 142 14.83 M127.17 0 C137.03 -1.52, 142.38 7.15, 142 14.83 M142 14.83 C143.47 23.76, 143.22 29.47, 142 44.5 M142 14.83 C142.96 21.42, 142 29.01, 142 44.5 M142 44.5 C140.71 52.69, 136.81 60.07, 127.17 59.33 M142 44.5 C141.26 55.9, 136.21 57.65, 127.17 59.33 M127.17 59.33 C93.75 59.81, 56.5 59.44, 14.83 59.33 M127.17 59.33 C90.69 58.77, 52.57 58.09, 14.83 59.33 M14.83 59.33 C3.05 61.01, -1.69 53.23, 0 44.5 M14.83 59.33 C3.71 61.5, -1.92 52.14, 0 44.5 M0 44.5 C-1.51 34.51, -0.02 24.54, 0 14.83 M0 44.5 C-0.08 32.73, -0.78 21.86, 0 14.83 M0 14.83 C1 5.23, 5.47 1.05, 14.83 0 M0 14.83 C0.2 5.74, 3.49 -0.68, 14.83 0" stroke="#1e1e1e" stroke-width="1" fill="none"></path></g><g transform="translate(366.99007880486545 186.2627384617097) rotate(0 31.639976501464844 12.5)"><text x="31.639976501464844" y="0" font-family="Virgil, Segoe UI Emoji" font-size="20px" fill="#1e1e1e" text-anchor="middle" style="white-space: pre;" direction="ltr" dominant-baseline="text-before-edge">Window</text></g><g stroke-linecap="round"><g transform="translate(392.9634293297678 239.7627384617097) rotate(0 -0.17295855818568384 27.892092164857317)"><path d="M-1.01 0.66 C-0.93 9.89, -0.06 45.52, 0.01 54.41 M0.66 -0.04 C0.68 9.46, -0.25 46.65, -0.58 55.82" stroke="#1e1e1e" stroke-width="1" fill="none"></path></g><g transform="translate(392.9634293297678 239.7627384617097) rotate(0 -0.17295855818568384 27.892092164857317)"><path d="M-8.08 31 C-7.54 36.92, -5.96 43.85, -0.81 56.31 M-9.53 30.7 C-6.85 39.03, -3.45 47.01, -1.47 56.8" stroke="#1e1e1e" stroke-width="1" fill="none"></path></g><g transform="translate(392.9634293297678 239.7627384617097) rotate(0 -0.17295855818568384 27.892092164857317)"><path d="M10.61 31.54 C6.23 37.16, 2.88 43.95, -0.81 56.31 M9.16 31.24 C5.4 39.49, 2.36 47.28, -1.47 56.8" stroke="#1e1e1e" stroke-width="1" fill="none"></path></g></g><mask></mask><g stroke-linecap="round" transform="translate(322.29674231804904 309.76270794413153) rotate(0 80.66667175292969 17.5)"><path d="M8.75 0 M8.75 0 C62.41 -1.44, 114.62 -2.09, 152.58 0 M8.75 0 C42.25 -1.11, 74.97 -0.57, 152.58 0 M152.58 0 C159.53 -1.69, 160.71 4.38, 161.33 8.75 M152.58 0 C159.41 0.99, 161.38 4.97, 161.33 8.75 M161.33 8.75 C161.96 15.06, 160.49 19.37, 161.33 26.25 M161.33 8.75 C162.13 15, 161.96 19.69, 161.33 26.25 M161.33 26.25 C160.46 30.14, 158.83 34.01, 152.58 35 M161.33 26.25 C163.25 31.56, 159.56 33.48, 152.58 35 M152.58 35 C111.23 33.95, 71.76 36.79, 8.75 35 M152.58 35 C101.04 37.16, 47.57 36.85, 8.75 35 M8.75 35 C4.73 36.52, -0.78 31.78, 0 26.25 M8.75 35 C3.19 36.17, -1.9 30.36, 0 26.25 M0 26.25 C0.57 21.01, 0.52 11.55, 0 8.75 M0 26.25 C-0.39 21.73, 0.4 16.17, 0 8.75 M0 8.75 C-1.29 3.74, 2.24 0.04, 8.75 0 M0 8.75 C-0.8 4.05, 2.1 -1.29, 8.75 0" stroke="#1e1e1e" stroke-width="1" fill="none"></path></g><g transform="translate(356.80345618523654 314.76270794413153) rotate(0 46.15995788574219 12.5)"><text x="46.15995788574219" y="0" font-family="Virgil, Segoe UI Emoji" font-size="20px" fill="#1e1e1e" text-anchor="middle" style="white-space: pre;" direction="ltr" dominant-baseline="text-before-edge">Document</text></g><g stroke-linecap="round"><g transform="translate(361.07261035855583 348.2172612897168) rotate(0 -79.77158208032604 34.362558418489044)"><path d="M-0.11 -0.61 C-26.61 10.7, -132.11 56.54, -158.55 68.1 M-1.62 1.69 C-28.31 13.13, -133.11 57.93, -159.44 69.33" stroke="#1e1e1e" stroke-width="1" fill="none"></path></g><g transform="translate(361.07261035855583 348.2172612897168) rotate(0 -79.77158208032604 34.362558418489044)"><path d="M-138.61 48.97 C-145.92 55.58, -152.27 63.88, -158 70.04 M-138.42 49.6 C-144.26 55.6, -151.25 60.62, -160.14 68.49" stroke="#1e1e1e" stroke-width="1" fill="none"></path></g><g transform="translate(361.07261035855583 348.2172612897168) rotate(0 -79.77158208032604 34.362558418489044)"><path d="M-130.5 67.82 C-140.61 68.02, -149.71 69.91, -158 70.04 M-130.32 68.45 C-138.56 68.72, -148.04 67.93, -160.14 68.49" stroke="#1e1e1e" stroke-width="1" fill="none"></path></g></g><mask></mask><g stroke-linecap="round"><g transform="translate(406.02012785247166 355.76273846170966) rotate(0 73.44771786918065 36.826766747338695)"><path d="M0.12 0.87 C24.95 12.81, 123.44 60.27, 148.18 72.35 M-1.28 0.28 C23.53 12.28, 122.71 60.97, 147.64 73.37" stroke="#1e1e1e" stroke-width="1" fill="none"></path></g><g transform="translate(406.02012785247166 355.76273846170966) rotate(0 73.44771786918065 36.826766747338695)"><path d="M119.27 71.41 C123.17 72.69, 131.83 72.74, 146.98 73.01 M118.16 70.37 C127.72 70.68, 135.33 72.17, 148.39 73.27" stroke="#1e1e1e" stroke-width="1" fill="none"></path></g><g transform="translate(406.02012785247166 355.76273846170966) rotate(0 73.44771786918065 36.826766747338695)"><path d="M128.35 53 C130.24 58.6, 136.77 62.95, 146.98 73.01 M127.24 51.97 C134.16 57.73, 139.05 64.73, 148.39 73.27" stroke="#1e1e1e" stroke-width="1" fill="none"></path></g></g><mask></mask><g stroke-linecap="round" transform="translate(147.4786440350335 426.3142559614107) rotate(0 51.33332824707031 18.333343505859375)"><path d="M9.17 0 M9.17 0 C40.65 0.43, 69.46 1.09, 93.5 0 M9.17 0 C37.15 -0.08, 63.99 0.07, 93.5 0 M93.5 0 C100.68 1.27, 103.22 1.41, 102.67 9.17 M93.5 0 C101.13 -2.25, 103.56 2.49, 102.67 9.17 M102.67 9.17 C103.85 16.6, 101.04 21.56, 102.67 27.5 M102.67 9.17 C101.99 16.55, 102.6 23.58, 102.67 27.5 M102.67 27.5 C102.31 33.02, 99.72 35.57, 93.5 36.67 M102.67 27.5 C102.92 33.6, 101.77 38.94, 93.5 36.67 M93.5 36.67 C66.68 35.47, 40.98 35.5, 9.17 36.67 M93.5 36.67 C77.02 35.62, 59.49 37.5, 9.17 36.67 M9.17 36.67 C4.77 37.66, -0.76 33.7, 0 27.5 M9.17 36.67 C4.54 36.84, -1.75 34.03, 0 27.5 M0 27.5 C-0.38 23.91, -0.26 19.19, 0 9.17 M0 27.5 C0.18 19.51, -0.79 13.76, 0 9.17 M0 9.17 C-1.36 1.98, 1.54 1.28, 9.17 0 M0 9.17 C1.12 4.89, 4.99 -1.49, 9.17 0" stroke="#1e1e1e" stroke-width="1" fill="none"></path></g><g transform="translate(175.47199120300226 432.1475994672701) rotate(0 23.339981079101562 12.5)"><text x="23.339981079101562" y="0" font-family="Virgil, Segoe UI Emoji" font-size="20px" fill="#1e1e1e" text-anchor="middle" style="white-space: pre;" direction="ltr" dominant-baseline="text-before-edge">Head</text></g><g stroke-linecap="round" transform="translate(503.6300858239084 438.4293949558503) rotate(0 65.00001525878906 18.000015258789062)"><path d="M9 0 M9 0 C32.61 0.63, 54.92 1.05, 121 0 M9 0 C41.82 0.05, 75.15 -0.56, 121 0 M121 0 C128.09 1.62, 130.77 4.76, 130 9 M121 0 C127.44 1.65, 131.02 5.17, 130 9 M130 9 C131.1 11.5, 129.25 18.04, 130 27 M130 9 C129.72 13.27, 129.64 17.98, 130 27 M130 27 C129.27 33.67, 128.53 34.31, 121 36 M130 27 C130.32 30.89, 126.07 35.27, 121 36 M121 36 C78.73 33.08, 30.9 33.75, 9 36 M121 36 C80.1 37.25, 39.18 36.52, 9 36 M9 36 C4.73 37.12, -1.62 31.36, 0 27 M9 36 C2.22 36.12, -0.91 32.04, 0 27 M0 27 C-0.06 19.21, 0.33 13.94, 0 9 M0 27 C0.74 22.78, 0.41 18.06, 0 9 M0 9 C-1.96 3.51, 1.32 1.64, 9 0 M0 9 C0.79 1.25, 1.86 1.39, 9 0" stroke="#1e1e1e" stroke-width="1" fill="none"></path></g><g transform="translate(545.4401215294748 443.92941021463935) rotate(0 23.189979553222656 12.5)"><text x="23.189979553222656" y="0" font-family="Virgil, Segoe UI Emoji" font-size="20px" fill="#1e1e1e" text-anchor="middle" style="white-space: pre;" direction="ltr" dominant-baseline="text-before-edge">Body</text></g><g stroke-linecap="round"><g transform="translate(154.4385402396745 469.29306914154995) rotate(0 -36.995867705180515 36.35442506356114)"><path d="M0.08 0.53 C-12.07 12.42, -61.29 59.73, -73.63 71.75 M-1.34 -0.24 C-13.5 11.77, -61.9 60.55, -74.07 72.95" stroke="#1e1e1e" stroke-width="1" fill="none"></path></g><g transform="translate(154.4385402396745 469.29306914154995) rotate(0 -36.995867705180515 36.35442506356114)"><path d="M-60.67 47.28 C-65.57 53.31, -67.05 57.59, -75.43 72.67 M-61.56 46.35 C-64.82 53.79, -68.63 60.84, -73.44 72.09" stroke="#1e1e1e" stroke-width="1" fill="none"></path></g><g transform="translate(154.4385402396745 469.29306914154995) rotate(0 -36.995867705180515 36.35442506356114)"><path d="M-46.07 61.71 C-54.53 64.27, -59.52 65.08, -75.43 72.67 M-46.96 60.78 C-54.49 64.08, -62.58 66.91, -73.44 72.09" stroke="#1e1e1e" stroke-width="1" fill="none"></path></g></g><mask></mask><g stroke-linecap="round"><g transform="translate(198.6846763383024 481.099124464684) rotate(0 -6.578511887667688 44.3793421453517)"><path d="M-1.02 0.05 C-3.22 14.86, -11.12 73.51, -13.24 88.59 M0.64 -0.98 C-1.65 14, -11.28 74.77, -13.8 89.74" stroke="#1e1e1e" stroke-width="1" fill="none"></path></g><g transform="translate(198.6846763383024 481.099124464684) rotate(0 -6.578511887667688 44.3793421453517)"><path d="M-19.33 61.52 C-19.06 69.37, -14.18 76.53, -15.48 91.56 M-18.78 61.03 C-16.88 70.25, -16.04 78.52, -13.67 90.69" stroke="#1e1e1e" stroke-width="1" fill="none"></path></g><g transform="translate(198.6846763383024 481.099124464684) rotate(0 -6.578511887667688 44.3793421453517)"><path d="M0.93 64.81 C-4.77 71.51, -5.87 77.7, -15.48 91.56 M1.47 64.32 C-2.99 72.31, -8.53 79.55, -13.67 90.69" stroke="#1e1e1e" stroke-width="1" fill="none"></path></g></g><mask></mask><g transform="translate(50.69684091705872 549.1294551445242) rotate(0 23.97997283935547 12.5)"><text x="0" y="0" font-family="Virgil, Segoe UI Emoji" font-size="20px" fill="#1e1e1e" text-anchor="start" style="white-space: pre;" direction="ltr" dominant-baseline="text-before-edge">Title</text></g><g transform="translate(170.02384379185852 588.6653870937964) rotate(0 25.449981689453125 12.5)"><text x="0" y="0" font-family="Virgil, Segoe UI Emoji" font-size="20px" fill="#1e1e1e" text-anchor="start" style="white-space: pre;" direction="ltr" dominant-baseline="text-before-edge">Meta</text></g><g stroke-linecap="round"><g transform="translate(78.03552334806957 578.90785143977) rotate(0 -12.110260353639841 31.765564508190494)"><path d="M0.57 -0.68 C-3.76 9.56, -20.81 51.93, -24.79 62.59 M-0.59 1.58 C-4.64 12.54, -18.63 54.24, -22.48 64.21" stroke="#1e1e1e" stroke-width="1" fill="none"></path></g><g transform="translate(78.03552334806957 578.90785143977) rotate(0 -12.110260353639841 31.765564508190494)"><path d="M-23.79 32.93 C-22.05 47.31, -20.83 57.43, -24.17 63.93 M-22.74 33.68 C-21.85 44.47, -22.99 57, -23.48 64.14" stroke="#1e1e1e" stroke-width="1" fill="none"></path></g><g transform="translate(78.03552334806957 578.90785143977) rotate(0 -12.110260353639841 31.765564508190494)"><path d="M-4.46 39.84 C-10.49 51.56, -16.97 58.93, -24.17 63.93 M-3.42 40.59 C-9.69 48.95, -18.03 58.9, -23.48 64.14" stroke="#1e1e1e" stroke-width="1" fill="none"></path></g></g><mask></mask><g transform="translate(10 656.4803782555622) rotate(0 52.919952392578125 12.5)"><text x="0" y="0" font-family="Virgil, Segoe UI Emoji" font-size="20px" fill="#1e1e1e" text-anchor="start" style="white-space: pre;" direction="ltr" dominant-baseline="text-before-edge">Text Node</text></g><g stroke-linecap="round"><g transform="translate(189.53895976643295 619.4016713038272) rotate(0 -0.9483943908402068 23.030911816011326)"><path d="M0.13 0.74 C-0.19 8.23, -0.64 38.46, -0.98 45.98 M-1.25 0.09 C-1.83 7.79, -2.23 37.11, -1.93 44.43" stroke="#1e1e1e" stroke-width="1" fill="none"></path></g><g transform="translate(189.53895976643295 619.4016713038272) rotate(0 -0.9483943908402068 23.030911816011326)"><path d="M-8.54 23.38 C-4.78 29.86, -2.05 38.75, -1.45 42.62 M-10.31 23.92 C-8.04 27.76, -6.28 33.11, -2.05 45.23" stroke="#1e1e1e" stroke-width="1" fill="none"></path></g><g transform="translate(189.53895976643295 619.4016713038272) rotate(0 -0.9483943908402068 23.030911816011326)"><path d="M6.81 23.26 C4.71 29.81, 1.57 38.74, -1.45 42.62 M5.05 23.8 C3.6 27.6, 1.66 32.99, -2.05 45.23" stroke="#1e1e1e" stroke-width="1" fill="none"></path></g></g><mask></mask><g transform="translate(149.53298765183789 674.0439692327227) rotate(0 46.229949951171875 12.5)"><text x="0" y="0" font-family="Virgil, Segoe UI Emoji" font-size="20px" fill="#1e1e1e" text-anchor="start" style="white-space: pre;" direction="ltr" dominant-baseline="text-before-edge">Attribute</text></g><g stroke-linecap="round" transform="translate(567.1561657753837 533.535196748917) rotate(0 64.39983358292181 26.83327888172468)"><path d="M13.42 0 M13.42 0 C41.34 0.26, 74.87 2.39, 115.38 0 M13.42 0 C36.81 0.8, 61.52 -0.52, 115.38 0 M115.38 0 C122.38 1.84, 126.86 4.63, 128.8 13.42 M115.38 0 C123.1 2.01, 128.39 6.37, 128.8 13.42 M128.8 13.42 C126.86 20.32, 129.87 27.45, 128.8 40.25 M128.8 13.42 C129.56 21.27, 127.89 29.79, 128.8 40.25 M128.8 40.25 C130.31 47.88, 124.75 51.8, 115.38 53.67 M128.8 40.25 C127.81 47.78, 122.89 52.35, 115.38 53.67 M115.38 53.67 C89.23 55.01, 64.8 53.59, 13.42 53.67 M115.38 53.67 C84 54.34, 53.6 53.77, 13.42 53.67 M13.42 53.67 C4.96 54.8, 0.83 49.18, 0 40.25 M13.42 53.67 C2.47 52.15, -0.24 47.99, 0 40.25 M0 40.25 C0.21 33.23, 0.64 28.62, 0 13.42 M0 40.25 C0.77 29.93, 0.1 18.41, 0 13.42 M0 13.42 C0.34 4.73, 5.54 -1.3, 13.42 0 M0 13.42 C-0.21 3.47, 5.91 -1.13, 13.42 0" stroke="#1e1e1e" stroke-width="1" fill="none"></path></g><g transform="translate(616.3360133963914 547.8684756306416) rotate(0 15.219985961914062 12.5)"><text x="15.219985961914062" y="0" font-family="Virgil, Segoe UI Emoji" font-size="20px" fill="#1e1e1e" text-anchor="middle" style="white-space: pre;" direction="ltr" dominant-baseline="text-before-edge">Div</text></g><g stroke-linecap="round"><g transform="translate(581.0313937382645 476.9414408223902) rotate(0 13.266595503865972 23.32770286496745)"><path d="M-0.24 0.73 C4.49 8.48, 23.52 38.16, 28.35 45.66 M-1.82 0.07 C2.81 7.99, 22.69 38.85, 27.76 46.59" stroke="#1e1e1e" stroke-width="1" fill="none"></path></g><g transform="translate(581.0313937382645 476.9414408223902) rotate(0 13.266595503865972 23.32770286496745)"><path d="M7.27 31.31 C10.49 37, 17.12 39.85, 25.84 45.98 M6.1 30.29 C11.65 34.64, 18.55 39.43, 28.58 46.57" stroke="#1e1e1e" stroke-width="1" fill="none"></path></g><g transform="translate(581.0313937382645 476.9414408223902) rotate(0 13.266595503865972 23.32770286496745)"><path d="M22.88 21.19 C21.35 29.88, 23.3 35.77, 25.84 45.98 M21.71 20.17 C22.68 27.68, 24.93 35.48, 28.58 46.57" stroke="#1e1e1e" stroke-width="1" fill="none"></path></g></g><mask></mask><g stroke-linecap="round"><g transform="translate(617.2084888669203 590.1290196752263) rotate(0 -22.97434203135117 37.73524583602966)"><path d="M-0.56 0.47 C-8.36 13.18, -38.55 63.28, -46.1 75.8 M1.35 -0.33 C-6.72 12.07, -39.29 61.72, -47.29 74.03" stroke="#1e1e1e" stroke-width="1" fill="none"></path></g><g transform="translate(617.2084888669203 590.1290196752263) rotate(0 -22.97434203135117 37.73524583602966)"><path d="M-39.68 44.04 C-41.91 54.94, -44.67 64.63, -45.46 76 M-40.78 44.38 C-42.33 55.33, -45.6 67.3, -47.74 74.95" stroke="#1e1e1e" stroke-width="1" fill="none"></path></g><g transform="translate(617.2084888669203 590.1290196752263) rotate(0 -22.97434203135117 37.73524583602966)"><path d="M-22.5 55.26 C-30.85 62.05, -39.78 67.71, -45.46 76 M-23.6 55.6 C-31.42 62.55, -41.01 70.39, -47.74 74.95" stroke="#1e1e1e" stroke-width="1" fill="none"></path></g></g><mask></mask><g stroke-linecap="round"><g transform="translate(634.1401163075743 591.1048045071941) rotate(0 40.75246824981855 43.862665527811714)"><path d="M-0.48 0.14 C8.43 9.68, 38.57 41.48, 52.31 56.22 C66.06 70.95, 77.22 83.16, 81.99 88.55 M1.46 -0.83 C10.35 8.45, 38.18 39.84, 51.5 54.41 C64.82 68.98, 76.51 81.26, 81.39 86.6" stroke="#1e1e1e" stroke-width="1" fill="none"></path></g><g transform="translate(634.1401163075743 591.1048045071941) rotate(0 40.75246824981855 43.862665527811714)"><path d="M62.16 77.06 C66.74 79.26, 70.89 79.5, 82.69 87.22 M61.1 75.91 C67.18 80.49, 72.47 82.69, 81.77 87.13" stroke="#1e1e1e" stroke-width="1" fill="none"></path></g><g transform="translate(634.1401163075743 591.1048045071941) rotate(0 40.75246824981855 43.862665527811714)"><path d="M73.11 66.88 C75.41 71.07, 77.35 73.37, 82.69 87.22 M72.06 65.73 C75.11 73, 77.39 78, 81.77 87.13" stroke="#1e1e1e" stroke-width="1" fill="none"></path></g></g><mask></mask><g transform="translate(556.422800622868 679.8985442249648) rotate(0 7.649993896484375 12.5)"><text x="0" y="0" font-family="Virgil, Segoe UI Emoji" font-size="20px" fill="#1e1e1e" text-anchor="start" style="white-space: pre;" direction="ltr" dominant-baseline="text-before-edge">h1</text></g><g transform="translate(714.4952087503557 686.2409223001468) rotate(0 4.92999267578125 12.5)"><text x="0" y="0" font-family="Virgil, Segoe UI Emoji" font-size="20px" fill="#1e1e1e" text-anchor="start" style="white-space: pre;" direction="ltr" dominant-baseline="text-before-edge">p</text></g><g stroke-linecap="round"><g transform="translate(699.6149143948024 561.7610141262417) rotate(0 33.73030405118209 1.5705592116569278)"><path d="M-0.97 -0.86 C10.16 -0.27, 54.81 1.88, 66.27 2.56 M0.72 1.3 C12.26 2.16, 57.33 4.03, 68.43 4" stroke="#1e1e1e" stroke-width="1" fill="none"></path></g><g transform="translate(699.6149143948024 561.7610141262417) rotate(0 33.73030405118209 1.5705592116569278)"><path d="M38.57 11.84 C47.05 12.18, 55.41 8.28, 70.2 4.18 M40.38 14.07 C51.83 8.86, 63.13 6.02, 67.99 3.61" stroke="#1e1e1e" stroke-width="1" fill="none"></path></g><g transform="translate(699.6149143948024 561.7610141262417) rotate(0 33.73030405118209 1.5705592116569278)"><path d="M39.05 -8.68 C47.24 -3.09, 55.48 -1.73, 70.2 4.18 M40.86 -6.45 C52.14 -3.64, 63.25 1.54, 67.99 3.61" stroke="#1e1e1e" stroke-width="1" fill="none"></path></g></g><mask></mask><g transform="translate(776.6995487946107 549.8791236859003) rotate(0 46.33995056152344 12.5)"><text x="0" y="0" font-family="Virgil, Segoe UI Emoji" font-size="20px" fill="#1e1e1e" text-anchor="start" style="white-space: pre;" direction="ltr" dominant-baseline="text-before-edge">attribute</text></g><g stroke-linecap="round"><g transform="translate(541.5425509338364 689.3921979144743) rotate(0 -46.78207146679395 1.1296471467039737)"><path d="M0.76 0.38 C-14.93 0.67, -77.78 2.57, -93.81 2.74 M-0.31 -0.47 C-16.1 -0.6, -78.88 0.54, -94.32 1.02" stroke="#1e1e1e" stroke-width="1" fill="none"></path></g><g transform="translate(541.5425509338364 689.3921979144743) rotate(0 -46.78207146679395 1.1296471467039737)"><path d="M-65.75 -8.49 C-74.07 -7.45, -85.35 -4.63, -93.93 2.21 M-67.19 -10.42 C-76.02 -6.83, -84.72 -2.77, -93.6 0.64" stroke="#1e1e1e" stroke-width="1" fill="none"></path></g><g transform="translate(541.5425509338364 689.3921979144743) rotate(0 -46.78207146679395 1.1296471467039737)"><path d="M-65.27 12.02 C-73.91 6.42, -85.35 2.59, -93.93 2.21 M-66.71 10.1 C-75.86 7.12, -84.71 4.62, -93.6 0.64" stroke="#1e1e1e" stroke-width="1" fill="none"></path></g></g><mask></mask><g stroke-linecap="round"><g transform="translate(566.321406069654 716.7995642931817) rotate(0 3.567828299600137 44.62755553496993)"><path d="M1.19 0.34 C1.84 15.16, 3.7 75.16, 4.38 89.79 M0.35 -0.53 C1.37 13.86, 6.06 73.06, 6.79 87.95" stroke="#1e1e1e" stroke-width="1" fill="none"></path></g><g transform="translate(566.321406069654 716.7995642931817) rotate(0 3.567828299600137 44.62755553496993)"><path d="M-4.75 59.52 C-0.16 70.16, 1.09 78.79, 5.98 88.95 M-6.22 60.6 C-0.09 70.04, 2.27 80.38, 7.28 87.4" stroke="#1e1e1e" stroke-width="1" fill="none"></path></g><g transform="translate(566.321406069654 716.7995642931817) rotate(0 3.567828299600137 44.62755553496993)"><path d="M15.73 58.16 C13.44 69.47, 7.79 78.55, 5.98 88.95 M14.26 59.25 C13.13 69.21, 8.25 80.03, 7.28 87.4" stroke="#1e1e1e" stroke-width="1" fill="none"></path></g></g><mask></mask><g transform="translate(521.0516947938157 819.1874740025061) rotate(0 48.75995635986328 12.5)"><text x="0" y="0" font-family="Virgil, Segoe UI Emoji" font-size="20px" fill="#1e1e1e" text-anchor="start" style="white-space: pre;" direction="ltr" dominant-baseline="text-before-edge">text node</text></g><g stroke-linecap="round"><g transform="translate(720.4696183821087 720.2507309656344) rotate(0 0.5612616844161948 44.92786559061091)"><path d="M-0.1 0.11 C0.11 15.11, 0.45 74.4, 0.64 89.27 M-1.61 -0.87 C-1 14.37, 1.87 75.49, 2.73 90.73" stroke="#1e1e1e" stroke-width="1" fill="none"></path></g><g transform="translate(720.4696183821087 720.2507309656344) rotate(0 0.5612616844161948 44.92786559061091)"><path d="M-8.76 61.11 C-6.44 68.69, -3.45 76.59, 2.6 92.45 M-8.81 63.88 C-5.98 70.04, -3.77 74.41, 2.42 90.23" stroke="#1e1e1e" stroke-width="1" fill="none"></path></g><g transform="translate(720.4696183821087 720.2507309656344) rotate(0 0.5612616844161948 44.92786559061091)"><path d="M11.74 60.07 C8.92 67.9, 6.78 76.05, 2.6 92.45 M11.68 62.84 C10.04 69.07, 7.77 73.66, 2.42 90.23" stroke="#1e1e1e" stroke-width="1" fill="none"></path></g></g><mask></mask><g transform="translate(345.65975356346337 675.0197540646902) rotate(0 46.33995056152344 12.5)"><text x="0" y="0" font-family="Virgil, Segoe UI Emoji" font-size="20px" fill="#1e1e1e" text-anchor="start" style="white-space: pre;" direction="ltr" dominant-baseline="text-before-edge">attribute</text></g><g transform="translate(682.2952919588948 821.3829675411728) rotate(0 48.75995635986328 12.5)"><text x="0" y="0" font-family="Virgil, Segoe UI Emoji" font-size="20px" fill="#1e1e1e" text-anchor="start" style="white-space: pre;" direction="ltr" dominant-baseline="text-before-edge">text node</text></g><g stroke-linecap="round"><g transform="translate(745.7193407098488 701.3650958639093) rotate(0 36.34941120475281 0.19539686570863068)"><path d="M-1.14 0.92 C11.06 0.97, 61.44 1.34, 73.84 1.19 M0.47 0.36 C12.42 -0.06, 60.18 -0.91, 72.72 -0.83" stroke="#1e1e1e" stroke-width="1" fill="none"></path></g><g transform="translate(745.7193407098488 701.3650958639093) rotate(0 36.34941120475281 0.19539686570863068)"><path d="M46.14 9.11 C54.8 4.72, 62.79 1.03, 72.85 -1.87 M45.33 9.18 C52.16 6.73, 59.64 3.07, 73.39 -1.07" stroke="#1e1e1e" stroke-width="1" fill="none"></path></g><g transform="translate(745.7193407098488 701.3650958639093) rotate(0 36.34941120475281 0.19539686570863068)"><path d="M45.99 -11.41 C54.86 -8.56, 62.9 -5, 72.85 -1.87 M45.18 -11.34 C52.23 -8.06, 59.75 -5.99, 73.39 -1.07" stroke="#1e1e1e" stroke-width="1" fill="none"></path></g></g><mask></mask><g transform="translate(830.6100304327912 684.7772450521951) rotate(0 46.33995056152344 12.5)"><text x="0" y="0" font-family="Virgil, Segoe UI Emoji" font-size="20px" fill="#1e1e1e" text-anchor="start" style="white-space: pre;" direction="ltr" dominant-baseline="text-before-edge">attribute</text></g><g transform="translate(39.34553351619277 10) rotate(0 5.4499969482421875 12.5)"><text x="0" y="0" font-family="Virgil, Segoe UI Emoji" font-size="20px" fill="#1e1e1e" text-anchor="start" style="white-space: pre;" direction="ltr" dominant-baseline="text-before-edge">1.</text></g><g transform="translate(68.1248432037469 12.055700825712933) rotate(0 68.31996154785156 12.5)"><text x="0" y="0" font-family="Virgil, Segoe UI Emoji" font-size="20px" fill="#1e1e1e" text-anchor="start" style="white-space: pre;" direction="ltr" dominant-baseline="text-before-edge">What Is DOM</text></g><g stroke-linecap="round"><g transform="translate(20.84446133747653 65.33178005198045) rotate(0 18.26023580624942 0.15179088683835662)"><path d="M0.46 0.11 C6.85 0.06, 31.38 0.07, 37.29 0 M-0.76 -0.88 C5.65 -0.82, 30.91 0.95, 36.85 1.18" stroke="#1e1e1e" stroke-width="1" fill="none"></path></g><g transform="translate(20.84446133747653 65.33178005198045) rotate(0 18.26023580624942 0.15179088683835662)"><path d="M19.63 7.9 C22.06 4.58, 25.23 3.33, 38.25 0.51 M19.05 6.41 C22.89 6.14, 28 3.4, 37.2 0.99" stroke="#1e1e1e" stroke-width="1" fill="none"></path></g><g transform="translate(20.84446133747653 65.33178005198045) rotate(0 18.26023580624942 0.15179088683835662)"><path d="M20.32 -4.51 C22.64 -5.22, 25.66 -3.86, 38.25 0.51 M19.75 -5.99 C23.44 -3.25, 28.38 -2.97, 37.2 0.99" stroke="#1e1e1e" stroke-width="1" fill="none"></path></g></g><mask></mask><g transform="translate(77.71797779995822 48.201180318243956) rotate(0 406.0396728515625 50)"><text x="0" y="0" font-family="Virgil, Segoe UI Emoji" font-size="20px" fill="#1e1e1e" text-anchor="start" style="white-space: pre;" direction="ltr" dominant-baseline="text-before-edge">The Document Object Model (DOM) is a programming interface for web documents.</text><text x="0" y="25" font-family="Virgil, Segoe UI Emoji" font-size="20px" fill="#1e1e1e" text-anchor="start" style="white-space: pre;" direction="ltr" dominant-baseline="text-before-edge">It represents the page so that programs can change the document structure, </text><text x="0" y="50" font-family="Virgil, Segoe UI Emoji" font-size="20px" fill="#1e1e1e" text-anchor="start" style="white-space: pre;" direction="ltr" dominant-baseline="text-before-edge">style, and content. The DOM represents the documentas nodes and objects; </text><text x="0" y="75" font-family="Virgil, Segoe UI Emoji" font-size="20px" fill="#1e1e1e" text-anchor="start" style="white-space: pre;" direction="ltr" dominant-baseline="text-before-edge">that way, programming languages can interact with the page.</text></g></svg>