<svg version="1.1" xmlns="http://www.w3.org/2000/svg" viewBox="0 0 674.4687256892381 1100.077584814379" width="674.4687256892381" height="1100.077584814379" filter="invert(93%) hue-rotate(180deg)">
  <!-- svg-source:excalidraw -->
  
  <defs>
    <style class="style-fonts">
      @font-face {
        font-family: "Virgil";
        src: url("https://excalidraw.com/Virgil.woff2");
      }
      @font-face {
        font-family: "Cascadia";
        src: url("https://excalidraw.com/Cascadia.woff2");
      }
    </style>
    
  </defs>
  <rect x="0" y="0" width="674.4687256892381" height="1100.077584814379" fill="#ffffff"></rect><g stroke-linecap="round" transform="translate(41.13535166580064 202.2543446782655) rotate(0 111 112.33334350585938)"><path d="M32 0 M32 0 C73.09 0, 114.18 0, 190 0 M32 0 C94.58 0, 157.17 0, 190 0 M190 0 C211.33 0, 222 10.67, 222 32 M190 0 C211.33 0, 222 10.67, 222 32 M222 32 C222 70.98, 222 109.95, 222 192.67 M222 32 C222 86.14, 222 140.29, 222 192.67 M222 192.67 C222 214, 211.33 224.67, 190 224.67 M222 192.67 C222 214, 211.33 224.67, 190 224.67 M190 224.67 C147.06 224.67, 104.11 224.67, 32 224.67 M190 224.67 C133.5 224.67, 77 224.67, 32 224.67 M32 224.67 C10.67 224.67, 0 214, 0 192.67 M32 224.67 C10.67 224.67, 0 214, 0 192.67 M0 192.67 C0 151.86, 0 111.05, 0 32 M0 192.67 C0 133.55, 0 74.44, 0 32 M0 32 C0 10.67, 10.67 0, 32 0 M0 32 C0 10.67, 10.67 0, 32 0" stroke="#f08c00" stroke-width="1" fill="none"></path></g><g stroke-linecap="round" transform="translate(172.80202341873033 250.92100117240614) rotate(0 34.333335876464844 76.33334350585938)"><path d="M17.17 0 M17.17 0 C27.69 0, 38.2 0, 51.5 0 M17.17 0 C25.26 0, 33.35 0, 51.5 0 M51.5 0 C62.94 0, 68.67 5.72, 68.67 17.17 M51.5 0 C62.94 0, 68.67 5.72, 68.67 17.17 M68.67 17.17 C68.67 62.83, 68.67 108.49, 68.67 135.5 M68.67 17.17 C68.67 62.79, 68.67 108.41, 68.67 135.5 M68.67 135.5 C68.67 146.94, 62.94 152.67, 51.5 152.67 M68.67 135.5 C68.67 146.94, 62.94 152.67, 51.5 152.67 M51.5 152.67 C40.37 152.67, 29.23 152.67, 17.17 152.67 M51.5 152.67 C42.57 152.67, 33.64 152.67, 17.17 152.67 M17.17 152.67 C5.72 152.67, 0 146.94, 0 135.5 M17.17 152.67 C5.72 152.67, 0 146.94, 0 135.5 M0 135.5 C0 93.41, 0 51.32, 0 17.17 M0 135.5 C0 100.24, 0 64.99, 0 17.17 M0 17.17 C0 5.72, 5.72 0, 17.17 0 M0 17.17 C0 5.72, 5.72 0, 17.17 0" stroke="#1e1e1e" stroke-width="1" fill="none"></path></g><g stroke-linecap="round" transform="translate(62.80202341873033 250.92103168998426) rotate(0 25 74.33332824707031)"><path d="M12.5 0 M12.5 0 C22.29 0, 32.09 0, 37.5 0 M12.5 0 C19.14 0, 25.77 0, 37.5 0 M37.5 0 C45.83 0, 50 4.17, 50 12.5 M37.5 0 C45.83 0, 50 4.17, 50 12.5 M50 12.5 C50 58.86, 50 105.22, 50 136.17 M50 12.5 C50 53.3, 50 94.1, 50 136.17 M50 136.17 C50 144.5, 45.83 148.67, 37.5 148.67 M50 136.17 C50 144.5, 45.83 148.67, 37.5 148.67 M37.5 148.67 C29.76 148.67, 22.01 148.67, 12.5 148.67 M37.5 148.67 C30.87 148.67, 24.23 148.67, 12.5 148.67 M12.5 148.67 C4.17 148.67, 0 144.5, 0 136.17 M12.5 148.67 C4.17 148.67, 0 144.5, 0 136.17 M0 136.17 C0 106.5, 0 76.83, 0 12.5 M0 136.17 C0 92.79, 0 49.41, 0 12.5 M0 12.5 C0 4.17, 4.17 0, 12.5 0 M0 12.5 C0 4.17, 4.17 0, 12.5 0" stroke="#1e1e1e" stroke-width="1" fill="none"></path></g><g stroke-linecap="round" transform="translate(408.46869517166 172.5876881841249) rotate(0 128.00001525878906 88)"><path d="M32 0 M32 0 C88.72 0, 145.45 0, 224 0 M32 0 C102.72 0, 173.44 0, 224 0 M224 0 C245.33 0, 256 10.67, 256 32 M224 0 C245.33 0, 256 10.67, 256 32 M256 32 C256 67.39, 256 102.77, 256 144 M256 32 C256 59.5, 256 87.01, 256 144 M256 144 C256 165.33, 245.33 176, 224 176 M256 144 C256 165.33, 245.33 176, 224 176 M224 176 C152.76 176, 81.51 176, 32 176 M224 176 C147.29 176, 70.58 176, 32 176 M32 176 C10.67 176, 0 165.33, 0 144 M32 176 C10.67 176, 0 165.33, 0 144 M0 144 C0 115.77, 0 87.55, 0 32 M0 144 C0 100.68, 0 57.37, 0 32 M0 32 C0 10.67, 10.67 0, 32 0 M0 32 C0 10.67, 10.67 0, 32 0" stroke="#2f9e44" stroke-width="1" fill="none"></path></g><g stroke-linecap="round" transform="translate(392.46869517166 377.5876881841249) rotate(0 98.66667175292969 20.333328247070312)"><path d="M10.17 0 M10.17 0 C54.7 0, 99.23 0, 187.17 0 M10.17 0 C72.64 0, 135.11 0, 187.17 0 M187.17 0 C193.94 0, 197.33 3.39, 197.33 10.17 M187.17 0 C193.94 0, 197.33 3.39, 197.33 10.17 M197.33 10.17 C197.33 18.22, 197.33 26.28, 197.33 30.5 M197.33 10.17 C197.33 15.95, 197.33 21.74, 197.33 30.5 M197.33 30.5 C197.33 37.28, 193.94 40.67, 187.17 40.67 M197.33 30.5 C197.33 37.28, 193.94 40.67, 187.17 40.67 M187.17 40.67 C151.59 40.67, 116.01 40.67, 10.17 40.67 M187.17 40.67 C127.46 40.67, 67.76 40.67, 10.17 40.67 M10.17 40.67 C3.39 40.67, 0 37.28, 0 30.5 M10.17 40.67 C3.39 40.67, 0 37.28, 0 30.5 M0 30.5 C0 22.89, 0 15.27, 0 10.17 M0 30.5 C0 25.73, 0 20.96, 0 10.17 M0 10.17 C0 3.39, 3.39 0, 10.17 0 M0 10.17 C0 3.39, 3.39 0, 10.17 0" stroke="#e03131" stroke-width="1" fill="none"></path></g><g stroke-linecap="round" transform="translate(319.8020234187303 448.2543446782655) rotate(0 138.00000762939453 36.333343505859375)"><path d="M18.17 0 M18.17 0 C85.49 0, 152.81 0, 257.83 0 M18.17 0 C72.73 0, 127.29 0, 257.83 0 M257.83 0 C269.94 0, 276 6.06, 276 18.17 M257.83 0 C269.94 0, 276 6.06, 276 18.17 M276 18.17 C276 31.35, 276 44.53, 276 54.5 M276 18.17 C276 27.72, 276 37.27, 276 54.5 M276 54.5 C276 66.61, 269.94 72.67, 257.83 72.67 M276 54.5 C276 66.61, 269.94 72.67, 257.83 72.67 M257.83 72.67 C173.4 72.67, 88.96 72.67, 18.17 72.67 M257.83 72.67 C190.69 72.67, 123.54 72.67, 18.17 72.67 M18.17 72.67 C6.06 72.67, 0 66.61, 0 54.5 M18.17 72.67 C6.06 72.67, 0 66.61, 0 54.5 M0 54.5 C0 46.93, 0 39.36, 0 18.17 M0 54.5 C0 46.01, 0 37.51, 0 18.17 M0 18.17 C0 6.06, 6.06 0, 18.17 0 M0 18.17 C0 6.06, 6.06 0, 18.17 0" stroke="#e03131" stroke-width="1" fill="none"></path></g><g stroke-linecap="round" transform="translate(558.46869517166 268.58765766654676) rotate(0 48.666656494140625 30.666671752929688)"><path d="M15.33 0 M15.33 0 C41.24 0, 67.14 0, 82 0 M15.33 0 C31.1 0, 46.87 0, 82 0 M82 0 C92.22 0, 97.33 5.11, 97.33 15.33 M82 0 C92.22 0, 97.33 5.11, 97.33 15.33 M97.33 15.33 C97.33 22.86, 97.33 30.38, 97.33 46 M97.33 15.33 C97.33 24.29, 97.33 33.24, 97.33 46 M97.33 46 C97.33 56.22, 92.22 61.33, 82 61.33 M97.33 46 C97.33 56.22, 92.22 61.33, 82 61.33 M82 61.33 C63.25 61.33, 44.5 61.33, 15.33 61.33 M82 61.33 C65.64 61.33, 49.28 61.33, 15.33 61.33 M15.33 61.33 C5.11 61.33, 0 56.22, 0 46 M15.33 61.33 C5.11 61.33, 0 56.22, 0 46 M0 46 C0 35.41, 0 24.81, 0 15.33 M0 46 C0 36.09, 0 26.18, 0 15.33 M0 15.33 C0 5.11, 5.11 0, 15.33 0 M0 15.33 C0 5.11, 5.11 0, 15.33 0" stroke="#2f9e44" stroke-width="1" fill="none"></path></g><g stroke-linecap="round" transform="translate(407.13538218337874 388.5876881841249) rotate(0 19 9.666671752929688)"><path d="M4.83 0 M4.83 0 C11.51 0, 18.19 0, 33.17 0 M4.83 0 C15.81 0, 26.79 0, 33.17 0 M33.17 0 C36.39 0, 38 1.61, 38 4.83 M33.17 0 C36.39 0, 38 1.61, 38 4.83 M38 4.83 C38 7.54, 38 10.25, 38 14.5 M38 4.83 C38 7.76, 38 10.69, 38 14.5 M38 14.5 C38 17.72, 36.39 19.33, 33.17 19.33 M38 14.5 C38 17.72, 36.39 19.33, 33.17 19.33 M33.17 19.33 C26.08 19.33, 19 19.33, 4.83 19.33 M33.17 19.33 C24.58 19.33, 16 19.33, 4.83 19.33 M4.83 19.33 C1.61 19.33, 0 17.72, 0 14.5 M4.83 19.33 C1.61 19.33, 0 17.72, 0 14.5 M0 14.5 C0 11.63, 0 8.75, 0 4.83 M0 14.5 C0 11.97, 0 9.44, 0 4.83 M0 4.83 C0 1.61, 1.61 0, 4.83 0 M0 4.83 C0 1.61, 1.61 0, 4.83 0" stroke="#f08c00" stroke-width="1" fill="none"></path></g><g stroke-linecap="round" transform="translate(461.1353516658006 388.5876881841249) rotate(0 21 9.666671752929688)"><path d="M4.83 0 M4.83 0 C15.8 0, 26.76 0, 37.17 0 M4.83 0 C16.25 0, 27.66 0, 37.17 0 M37.17 0 C40.39 0, 42 1.61, 42 4.83 M37.17 0 C40.39 0, 42 1.61, 42 4.83 M42 4.83 C42 8.61, 42 12.39, 42 14.5 M42 4.83 C42 7.81, 42 10.8, 42 14.5 M42 14.5 C42 17.72, 40.39 19.33, 37.17 19.33 M42 14.5 C42 17.72, 40.39 19.33, 37.17 19.33 M37.17 19.33 C29.02 19.33, 20.87 19.33, 4.83 19.33 M37.17 19.33 C26.4 19.33, 15.62 19.33, 4.83 19.33 M4.83 19.33 C1.61 19.33, 0 17.72, 0 14.5 M4.83 19.33 C1.61 19.33, 0 17.72, 0 14.5 M0 14.5 C0 12.07, 0 9.64, 0 4.83 M0 14.5 C0 12.39, 0 10.27, 0 4.83 M0 4.83 C0 1.61, 1.61 0, 4.83 0 M0 4.83 C0 1.61, 1.61 0, 4.83 0" stroke="#f08c00" stroke-width="1" fill="none"></path></g><g stroke-linecap="round" transform="translate(350.46869517166 468.5876881841249) rotate(0 32.33332824707031 17.333328247070312)"><path d="M8.67 0 M8.67 0 C21 0, 33.34 0, 56 0 M8.67 0 C23.59 0, 38.51 0, 56 0 M56 0 C61.78 0, 64.67 2.89, 64.67 8.67 M56 0 C61.78 0, 64.67 2.89, 64.67 8.67 M64.67 8.67 C64.67 12.4, 64.67 16.13, 64.67 26 M64.67 8.67 C64.67 12.59, 64.67 16.51, 64.67 26 M64.67 26 C64.67 31.78, 61.78 34.67, 56 34.67 M64.67 26 C64.67 31.78, 61.78 34.67, 56 34.67 M56 34.67 C46.13 34.67, 36.27 34.67, 8.67 34.67 M56 34.67 C45.95 34.67, 35.89 34.67, 8.67 34.67 M8.67 34.67 C2.89 34.67, 0 31.78, 0 26 M8.67 34.67 C2.89 34.67, 0 31.78, 0 26 M0 26 C0 22.46, 0 18.92, 0 8.67 M0 26 C0 20.88, 0 15.76, 0 8.67 M0 8.67 C0 2.89, 2.89 0, 8.67 0 M0 8.67 C0 2.89, 2.89 0, 8.67 0" stroke="#f08c00" stroke-width="1" fill="none"></path></g><g stroke-linecap="round" transform="translate(431.1353516658006 469.25437519584364) rotate(0 34 15.666656494140625)"><path d="M7.83 0 M7.83 0 C20.54 0, 33.25 0, 60.17 0 M7.83 0 C18.53 0, 29.22 0, 60.17 0 M60.17 0 C65.39 0, 68 2.61, 68 7.83 M60.17 0 C65.39 0, 68 2.61, 68 7.83 M68 7.83 C68 11.9, 68 15.97, 68 23.5 M68 7.83 C68 11.97, 68 16.11, 68 23.5 M68 23.5 C68 28.72, 65.39 31.33, 60.17 31.33 M68 23.5 C68 28.72, 65.39 31.33, 60.17 31.33 M60.17 31.33 C48.66 31.33, 37.15 31.33, 7.83 31.33 M60.17 31.33 C47.57 31.33, 34.97 31.33, 7.83 31.33 M7.83 31.33 C2.61 31.33, 0 28.72, 0 23.5 M7.83 31.33 C2.61 31.33, 0 28.72, 0 23.5 M0 23.5 C0 19.69, 0 15.88, 0 7.83 M0 23.5 C0 19.25, 0 15, 0 7.83 M0 7.83 C0 2.61, 2.61 0, 7.83 0 M0 7.83 C0 2.61, 2.61 0, 7.83 0" stroke="#f08c00" stroke-width="1" fill="none"></path></g><g stroke-linecap="round" transform="translate(179.80202341873033 305.92103168998426) rotate(0 24.00000762939453 10.333328247070312)"><path d="M5.17 0 M5.17 0 C18.51 0, 31.85 0, 42.83 0 M5.17 0 C15.62 0, 26.07 0, 42.83 0 M42.83 0 C46.28 0, 48 1.72, 48 5.17 M42.83 0 C46.28 0, 48 1.72, 48 5.17 M48 5.17 C48 7.77, 48 10.37, 48 15.5 M48 5.17 C48 8.8, 48 12.44, 48 15.5 M48 15.5 C48 18.94, 46.28 20.67, 42.83 20.67 M48 15.5 C48 18.94, 46.28 20.67, 42.83 20.67 M42.83 20.67 C32.46 20.67, 22.08 20.67, 5.17 20.67 M42.83 20.67 C31.47 20.67, 20.1 20.67, 5.17 20.67 M5.17 20.67 C1.72 20.67, 0 18.94, 0 15.5 M5.17 20.67 C1.72 20.67, 0 18.94, 0 15.5 M0 15.5 C0 11.77, 0 8.03, 0 5.17 M0 15.5 C0 11.64, 0 7.78, 0 5.17 M0 5.17 C0 1.72, 1.72 0, 5.17 0 M0 5.17 C0 1.72, 1.72 0, 5.17 0" stroke="#1e1e1e" stroke-width="1" fill="none"></path></g><g stroke-linecap="round" transform="translate(179.80200815994127 333.25437519584364) rotate(0 24.000015258789062 10.333328247070312)"><path d="M5.17 0 M5.17 0 C15.39 0, 25.61 0, 42.83 0 M5.17 0 C18.53 0, 31.89 0, 42.83 0 M42.83 0 C46.28 0, 48 1.72, 48 5.17 M42.83 0 C46.28 0, 48 1.72, 48 5.17 M48 5.17 C48 8.95, 48 12.74, 48 15.5 M48 5.17 C48 9.04, 48 12.91, 48 15.5 M48 15.5 C48 18.94, 46.28 20.67, 42.83 20.67 M48 15.5 C48 18.94, 46.28 20.67, 42.83 20.67 M42.83 20.67 C29.94 20.67, 17.05 20.67, 5.17 20.67 M42.83 20.67 C30.92 20.67, 19.02 20.67, 5.17 20.67 M5.17 20.67 C1.72 20.67, 0 18.94, 0 15.5 M5.17 20.67 C1.72 20.67, 0 18.94, 0 15.5 M0 15.5 C0 12.6, 0 9.71, 0 5.17 M0 15.5 C0 13.35, 0 11.2, 0 5.17 M0 5.17 C0 1.72, 1.72 0, 5.17 0 M0 5.17 C0 1.72, 1.72 0, 5.17 0" stroke="#1e1e1e" stroke-width="1" fill="none"></path></g><g stroke-linecap="round" transform="translate(177.13533640701158 360.587718701703) rotate(0 27.666664123535156 9.333328247070312)"><path d="M4.67 0 M4.67 0 C16.8 0, 28.93 0, 50.67 0 M4.67 0 C20.92 0, 37.17 0, 50.67 0 M50.67 0 C53.78 0, 55.33 1.56, 55.33 4.67 M50.67 0 C53.78 0, 55.33 1.56, 55.33 4.67 M55.33 4.67 C55.33 8.08, 55.33 11.49, 55.33 14 M55.33 4.67 C55.33 8.31, 55.33 11.96, 55.33 14 M55.33 14 C55.33 17.11, 53.78 18.67, 50.67 18.67 M55.33 14 C55.33 17.11, 53.78 18.67, 50.67 18.67 M50.67 18.67 C32.64 18.67, 14.62 18.67, 4.67 18.67 M50.67 18.67 C33.77 18.67, 16.87 18.67, 4.67 18.67 M4.67 18.67 C1.56 18.67, 0 17.11, 0 14 M4.67 18.67 C1.56 18.67, 0 17.11, 0 14 M0 14 C0 10.52, 0 7.04, 0 4.67 M0 14 C0 12.12, 0 10.24, 0 4.67 M0 4.67 C0 1.56, 1.56 0, 4.67 0 M0 4.67 C0 1.56, 1.56 0, 4.67 0" stroke="#1e1e1e" stroke-width="1" fill="none"></path></g><g transform="translate(190.13535166580064 334.92103168998426) rotate(0 9.529991149902344 12.5)"><text x="0" y="0" font-family="Virgil, Segoe UI Emoji" font-size="20px" fill="#1e1e1e" text-anchor="start" style="white-space: pre;" direction="ltr" dominant-baseline="text-before-edge">fn</text></g><g transform="translate(190.80202341873033 306.9210164311952) rotate(0 9.529991149902344 12.5)"><text x="0" y="0" font-family="Virgil, Segoe UI Emoji" font-size="20px" fill="#1e1e1e" text-anchor="start" style="white-space: pre;" direction="ltr" dominant-baseline="text-before-edge">fn</text></g><g transform="translate(180.1353669245897 362.92103168998426) rotate(0 21.505844116210938 8.833328247070312)"><text x="0" y="0" font-family="Virgil, Segoe UI Emoji" font-size="14.133325195312493px" fill="#1e1e1e" text-anchor="start" style="white-space: pre;" direction="ltr" dominant-baseline="text-before-edge">Global</text></g><g transform="translate(50.80203867751939 226.2543446782655) rotate(0 39.897315979003906 8.101210939745954)"><text x="0" y="0" font-family="Virgil, Segoe UI Emoji" font-size="12.961937503593514px" fill="#1e1e1e" text-anchor="start" style="white-space: pre;" direction="ltr" dominant-baseline="text-before-edge">Memory Heap</text></g><g transform="translate(168.46869517166002 229.2543446782655) rotate(0 35.12877655029297 8.5)"><text x="0" y="0" font-family="Virgil, Segoe UI Emoji" font-size="13.599999999999996px" fill="#1e1e1e" text-anchor="start" style="white-space: pre;" direction="ltr" dominant-baseline="text-before-edge">Call Stack</text></g><g transform="translate(110.13535166580064 171.5876881841249) rotate(0 46.16996765136719 12.5)"><text x="0" y="0" font-family="Virgil, Segoe UI Emoji" font-size="20px" fill="#1e1e1e" text-anchor="start" style="white-space: pre;" direction="ltr" dominant-baseline="text-before-edge">JS Engine</text></g><g transform="translate(490.80200815994124 148.25432941947645) rotate(0 45.08998107910156 12.5)"><text x="0" y="0" font-family="Virgil, Segoe UI Emoji" font-size="20px" fill="#1e1e1e" text-anchor="start" style="white-space: pre;" direction="ltr" dominant-baseline="text-before-edge">WEB API</text></g><g transform="translate(418.1353211482225 188.58767292533582) rotate(0 38.740211486816406 10.453817276060931)"><text x="0" y="0" font-family="Virgil, Segoe UI Emoji" font-size="16.726107641697485px" fill="#1e1e1e" text-anchor="start" style="white-space: pre;" direction="ltr" dominant-baseline="text-before-edge">DOM API</text></g><g transform="translate(411.80203867751936 215.92098591361707) rotate(0 55.891883850097656 11.902027684515588)"><text x="0" y="0" font-family="Virgil, Segoe UI Emoji" font-size="19.043244295224962px" fill="#1e1e1e" text-anchor="start" style="white-space: pre;" direction="ltr" dominant-baseline="text-before-edge">Set timeout</text></g><g transform="translate(414.1353516658006 243.2543446782655) rotate(0 56.88360595703125 11.420774969601467)"><text x="0" y="0" font-family="Virgil, Segoe UI Emoji" font-size="18.273239951362363px" fill="#1e1e1e" text-anchor="start" style="white-space: pre;" direction="ltr" dominant-baseline="text-before-edge">Set Interval</text></g><g transform="translate(425.46866465408186 278.25440571342176) rotate(0 34.34996795654297 12.5)"><text x="0" y="0" font-family="Virgil, Segoe UI Emoji" font-size="20px" fill="#1e1e1e" text-anchor="start" style="white-space: pre;" direction="ltr" dominant-baseline="text-before-edge">Fetch()</text></g><g stroke-linecap="round" transform="translate(416.80203867751936 273.2543446782655) rotate(0 46 15.666671752929688)"><path d="M7.83 0 M7.83 0 C36.44 0, 65.06 0, 84.17 0 M7.83 0 C31.16 0, 54.48 0, 84.17 0 M84.17 0 C89.39 0, 92 2.61, 92 7.83 M84.17 0 C89.39 0, 92 2.61, 92 7.83 M92 7.83 C92 11.18, 92 14.54, 92 23.5 M92 7.83 C92 11.02, 92 14.2, 92 23.5 M92 23.5 C92 28.72, 89.39 31.33, 84.17 31.33 M92 23.5 C92 28.72, 89.39 31.33, 84.17 31.33 M84.17 31.33 C65.33 31.33, 46.49 31.33, 7.83 31.33 M84.17 31.33 C57.54 31.33, 30.9 31.33, 7.83 31.33 M7.83 31.33 C2.61 31.33, 0 28.72, 0 23.5 M7.83 31.33 C2.61 31.33, 0 28.72, 0 23.5 M0 23.5 C0 19.94, 0 16.37, 0 7.83 M0 23.5 C0 19.71, 0 15.91, 0 7.83 M0 7.83 C0 2.61, 2.61 0, 7.83 0 M0 7.83 C0 2.61, 2.61 0, 7.83 0" stroke="#1e1e1e" stroke-width="1" fill="none"></path></g><g stroke-linecap="round"><g transform="translate(526.8020386775194 230.5876881841249) rotate(0 52.274680193001984 18.397780318531716)"><path d="M-0.09 -0.75 C15.4 -0.36, 75.24 -3.44, 92.69 3.01 C110.13 9.46, 102.77 32.46, 104.6 37.94" stroke="#2f9e44" stroke-width="1.5" fill="none" stroke-dasharray="8 9"></path></g><g transform="translate(526.8020386775194 230.5876881841249) rotate(0 52.274680193001984 18.397780318531716)"><path d="M97.25 20.34 C99.71 25.7, 103.32 28.92, 102.96 36.65" stroke="#2f9e44" stroke-width="1.5" fill="none"></path></g><g transform="translate(526.8020386775194 230.5876881841249) rotate(0 52.274680193001984 18.397780318531716)"><path d="M109.41 20.23 C108.5 25.61, 108.72 28.86, 102.96 36.65" stroke="#2f9e44" stroke-width="1.5" fill="none"></path></g></g><mask></mask><g transform="translate(569.8019776423631 277.92100117240614) rotate(0 37.199974060058594 19.703386919622204)"><text x="0" y="0" font-family="Virgil, Segoe UI Emoji" font-size="15.762709535697752px" fill="#2f9e44" text-anchor="start" style="white-space: pre;" direction="ltr" dominant-baseline="text-before-edge">Register</text><text x="0" y="19.70338691962219" font-family="Virgil, Segoe UI Emoji" font-size="15.762709535697752px" fill="#2f9e44" text-anchor="start" style="white-space: pre;" direction="ltr" dominant-baseline="text-before-edge">Call Back</text></g><g stroke-linecap="round"><g transform="translate(629.46869517166 335.2543446782655) rotate(0 -11.879691692351287 76.58628712512197)"><path d="M1.12 -1.09 C1.51 21.67, 7.04 111.26, 2.2 137.11 C-2.65 162.96, -22.91 151.05, -27.93 154.02" stroke="#2f9e44" stroke-width="1.5" fill="none" stroke-dasharray="8 9"></path></g><g transform="translate(629.46869517166 335.2543446782655) rotate(0 -11.879691692351287 76.58628712512197)"><path d="M-13.56 147.38 C-17.86 149.08, -21.18 150.77, -26.57 155.5" stroke="#2f9e44" stroke-width="1.5" fill="none"></path></g><g transform="translate(629.46869517166 335.2543446782655) rotate(0 -11.879691692351287 76.58628712512197)"><path d="M-13.44 159.01 C-17.83 157.34, -21.18 155.66, -26.57 155.5" stroke="#2f9e44" stroke-width="1.5" fill="none"></path></g></g><mask></mask><g stroke-linecap="round"><g transform="translate(482.46869517166 307.2543446782655) rotate(0 0.4150344244037001 35.182387573271996)"><path d="M-0.49 -0.72 C-0.09 5.2, 1.16 24.69, 1.31 36.66 C1.46 48.63, 0.52 65.42, 0.41 71.08" stroke="#2f9e44" stroke-width="1.5" fill="none" stroke-dasharray="8 9"></path></g><g transform="translate(482.46869517166 307.2543446782655) rotate(0 0.4150344244037001 35.182387573271996)"><path d="M-5.85 54.87 C-2.64 57.02, -0.95 60.72, 1.32 72.52" stroke="#2f9e44" stroke-width="1.5" fill="none"></path></g><g transform="translate(482.46869517166 307.2543446782655) rotate(0 0.4150344244037001 35.182387573271996)"><path d="M5.77 55.28 C6.53 57.3, 5.79 60.91, 1.32 72.52" stroke="#2f9e44" stroke-width="1.5" fill="none"></path></g></g><mask></mask><g transform="translate(414.46866465408186 388.58765766654676) rotate(0 11.882003751620658 10.833343505859375)"><text x="0" y="0" font-family="Virgil, Segoe UI Emoji" font-size="17.333349609375006px" fill="#2f9e44" text-anchor="start" style="white-space: pre;" direction="ltr" dominant-baseline="text-before-edge">CB</text></g><g transform="translate(467.09204722244124 388.0876881841249) rotate(0 11.376663208007812 10.372602387540098)"><text x="0" y="0" font-family="Virgil, Segoe UI Emoji" font-size="16.59616382006417px" fill="#2f9e44" text-anchor="start" style="white-space: pre;" direction="ltr" dominant-baseline="text-before-edge">CB</text></g><g transform="translate(452.4253602107225 474.42100117240614) rotate(0 13.344397261552501 12.166671752929688)"><text x="0" y="0" font-family="Virgil, Segoe UI Emoji" font-size="19.466674804687504px" fill="#2f9e44" text-anchor="start" style="white-space: pre;" direction="ltr" dominant-baseline="text-before-edge">CB</text></g><g transform="translate(367.0920167048631 472.7543446782655) rotate(0 13.709991455078125 12.5)"><text x="0" y="0" font-family="Virgil, Segoe UI Emoji" font-size="20px" fill="#2f9e44" text-anchor="start" style="white-space: pre;" direction="ltr" dominant-baseline="text-before-edge">CB</text></g><g stroke-linecap="round"><g transform="translate(325.667887089582 483.587718701703) rotate(0 -64.37857467333042 -35.98561584127276)"><path d="M-9.91 1.14 C-25.94 0.48, -88.66 8.93, -106.77 -3.8 C-124.87 -16.53, -116.73 -63.14, -118.53 -75.26" stroke="#2f9e44" stroke-width="1.5" fill="none" stroke-dasharray="8 9"></path></g><g transform="translate(325.667887089582 483.587718701703) rotate(0 -64.37857467333042 -35.98561584127276)"><path d="M-106.5 -45.32 C-113.57 -57.97, -113.68 -65.44, -119.34 -73.6" stroke="#2f9e44" stroke-width="1.5" fill="none"></path></g><g transform="translate(325.667887089582 483.587718701703) rotate(0 -64.37857467333042 -35.98561584127276)"><path d="M-127.02 -45.41 C-127.52 -58.2, -121.06 -65.64, -119.34 -73.6" stroke="#2f9e44" stroke-width="1.5" fill="none"></path></g></g><mask></mask><g stroke-linecap="round"><g transform="translate(392.46869517166 396.5876881841249) rotate(0 -72.8884787492454 -0.957704824954277)"><path d="M-0.84 1.07 C-20.96 0.94, -95.61 0.14, -119.63 -0.54 C-143.65 -1.21, -140.73 -2.6, -144.94 -2.98" stroke="#2f9e44" stroke-width="1.5" fill="none" stroke-dasharray="8 9"></path></g><g transform="translate(392.46869517166 396.5876881841249) rotate(0 -72.8884787492454 -0.957704824954277)"><path d="M-130.55 -5.26 C-135.98 -3.08, -143.1 -2.22, -145.87 -3.4" stroke="#2f9e44" stroke-width="1.5" fill="none"></path></g><g transform="translate(392.46869517166 396.5876881841249) rotate(0 -72.8884787492454 -0.957704824954277)"><path d="M-132.39 3.67 C-137.12 2.39, -143.52 -0.23, -145.87 -3.4" stroke="#2f9e44" stroke-width="1.5" fill="none"></path></g></g><mask></mask><g stroke-linecap="round"><g transform="translate(227.13535166580064 307.92103168998426) rotate(0 89.66667175292969 -38.66667175292969)"><path d="M0 0 C29.89 -12.89, 149.44 -64.44, 179.33 -77.33 M0 0 C29.89 -12.89, 149.44 -64.44, 179.33 -77.33" stroke="#1e1e1e" stroke-width="1" fill="none"></path></g><g transform="translate(227.13535166580064 307.92103168998426) rotate(0 89.66667175292969 -38.66667175292969)"><path d="M157.51 -56.75 C164.52 -63.36, 171.53 -69.97, 179.33 -77.33 M157.51 -56.75 C165.94 -64.7, 174.37 -72.65, 179.33 -77.33" stroke="#1e1e1e" stroke-width="1" fill="none"></path></g><g transform="translate(227.13535166580064 307.92103168998426) rotate(0 89.66667175292969 -38.66667175292969)"><path d="M149.38 -75.59 C159 -76.15, 168.62 -76.71, 179.33 -77.33 M149.38 -75.59 C160.95 -76.26, 172.53 -76.94, 179.33 -77.33" stroke="#1e1e1e" stroke-width="1" fill="none"></path></g></g><mask></mask><g transform="translate(399.87975278233796 527.6918613738111) rotate(0 59.35994720458987 12.5)"><text x="0" y="0" font-family="Virgil, Segoe UI Emoji" font-size="20px" fill="#1e1e1e" text-anchor="start" style="white-space: pre;" direction="ltr" dominant-baseline="text-before-edge">Task Queue</text></g><g transform="translate(155.72124432218675 473.573191744851) rotate(0 46.377056422874446 20.290990496961115)"><text x="0" y="0" font-family="Virgil, Segoe UI Emoji" font-size="16.232792397568897px" fill="#1e1e1e" text-anchor="start" style="white-space: pre;" direction="ltr" dominant-baseline="text-before-edge">Add to </text><text x="0" y="20.290990496961122" font-family="Virgil, Segoe UI Emoji" font-size="16.232792397568897px" fill="#1e1e1e" text-anchor="start" style="white-space: pre;" direction="ltr" dominant-baseline="text-before-edge">CALL Stock</text></g><g transform="translate(215.43070177204547 577.5102088521306) rotate(0 65.24996185302734 12.5)"><text x="0" y="0" font-family="Virgil, Segoe UI Emoji" font-size="20px" fill="#f08c00" text-anchor="start" style="white-space: pre;" direction="ltr" dominant-baseline="text-before-edge">EVENT LOOP</text></g><g transform="translate(283.3115936325953 374.43094422694526) rotate(0 41.74330033736888 7.47338623133669)"><text x="0" y="0" font-family="Virgil, Segoe UI Emoji" font-size="11.957417970138708px" fill="#1e1e1e" text-anchor="start" style="white-space: pre;" direction="ltr" dominant-baseline="text-before-edge">Priority Queue</text></g><g transform="translate(204.4096404072071 10) rotate(0 117.25703137864494 45.14055652341205)"><text x="0" y="0" font-family="Virgil, Segoe UI Emoji" font-size="72.22489043745927px" fill="#1e1e1e" text-anchor="start" style="white-space: pre;" direction="ltr" dominant-baseline="text-before-edge">FETCH</text></g><g transform="translate(86.06931626730704 669.9093805730296) rotate(0 199.19338921719697 17.605316494961812)"><text x="0" y="0" font-family="Virgil, Segoe UI Emoji" font-size="28.16850639193889px" fill="#1e1e1e" text-anchor="start" style="white-space: pre;" direction="ltr" dominant-baseline="text-before-edge">response = fetch('something')</text></g><g stroke-linecap="round"><g transform="translate(10 687.2674987224756) rotate(0 15.826520863925552 0.5105246384001703)"><path d="M0 0 C5.28 0.17, 26.38 0.85, 31.65 1.02 M0 0 C5.28 0.17, 26.38 0.85, 31.65 1.02" stroke="#1e1e1e" stroke-width="4" fill="none"></path></g></g><mask></mask><g stroke-linecap="round"><g transform="translate(225.95521725839657 710.752006014004) rotate(0 -63.81654966830264 59.732294135301174)"><path d="M0 0 C-21.27 19.91, -106.36 99.55, -127.63 119.46 M0 0 C-21.27 19.91, -106.36 99.55, -127.63 119.46" stroke="#1e1e1e" stroke-width="4" fill="none"></path></g><g transform="translate(225.95521725839657 710.752006014004) rotate(0 -63.81654966830264 59.732294135301174)"><path d="M-114.06 92.71 C-117.86 100.19, -121.65 107.66, -127.63 119.46 M-114.06 92.71 C-117.69 99.85, -121.31 106.99, -127.63 119.46" stroke="#1e1e1e" stroke-width="4" fill="none"></path></g><g transform="translate(225.95521725839657 710.752006014004) rotate(0 -63.81654966830264 59.732294135301174)"><path d="M-100.04 107.69 C-107.75 110.98, -115.46 114.27, -127.63 119.46 M-100.04 107.69 C-107.4 110.83, -114.77 113.98, -127.63 119.46" stroke="#1e1e1e" stroke-width="4" fill="none"></path></g></g><mask></mask><g stroke-linecap="round"><g transform="translate(251.48186984416552 710.752006014004) rotate(0 66.36920791578359 57.17962420266031)"><path d="M0 0 C22.12 19.06, 110.62 95.3, 132.74 114.36 M0 0 C22.12 19.06, 110.62 95.3, 132.74 114.36" stroke="#1e1e1e" stroke-width="4" fill="none"></path></g><g transform="translate(251.48186984416552 710.752006014004) rotate(0 66.36920791578359 57.17962420266031)"><path d="M104.68 103.73 C115.29 107.75, 125.9 111.77, 132.74 114.36 M104.68 103.73 C110.78 106.04, 116.88 108.35, 132.74 114.36" stroke="#1e1e1e" stroke-width="4" fill="none"></path></g><g transform="translate(251.48186984416552 710.752006014004) rotate(0 66.36920791578359 57.17962420266031)"><path d="M118.08 88.19 C123.62 98.08, 129.17 107.98, 132.74 114.36 M118.08 88.19 C121.27 93.88, 124.45 99.57, 132.74 114.36" stroke="#1e1e1e" stroke-width="4" fill="none"></path></g></g><mask></mask><g transform="translate(36.03715385384925 862.8906385486183) rotate(0 70.90995025634766 37.5)"><text x="0" y="0" font-family="Virgil, Segoe UI Emoji" font-size="20px" fill="#1e1e1e" text-anchor="start" style="white-space: pre;" direction="ltr" dominant-baseline="text-before-edge">Data:-</text><text x="0" y="25" font-family="Virgil, Segoe UI Emoji" font-size="20px" fill="#1e1e1e" text-anchor="start" style="white-space: pre;" direction="ltr" dominant-baseline="text-before-edge">Onfulfilled[]</text><text x="0" y="50" font-family="Virgil, Segoe UI Emoji" font-size="20px" fill="#1e1e1e" text-anchor="start" style="white-space: pre;" direction="ltr" dominant-baseline="text-before-edge">On Rejection[]</text></g><g transform="translate(339.2934163869169 858.2958466920566) rotate(0 89.54992675781253 12.5)"><text x="0" y="0" font-family="Virgil, Segoe UI Emoji" font-size="20px" fill="#1e1e1e" text-anchor="start" style="white-space: pre;" direction="ltr" dominant-baseline="text-before-edge">Web Browser/Node</text></g><g stroke-linecap="round"><g transform="translate(423.0207658224664 887.906743125667) rotate(0 0 13.273850931284642)"><path d="M0 0 C0 4.42, 0 22.12, 0 26.55 M0 0 C0 4.42, 0 22.12, 0 26.55" stroke="#1e1e1e" stroke-width="4" fill="none"></path></g><g transform="translate(423.0207658224664 887.906743125667) rotate(0 0 13.273850931284642)"><path d="M-4.54 14.07 C-3.54 16.83, -2.53 19.58, 0 26.55 M-4.54 14.07 C-3.34 17.36, -2.15 20.64, 0 26.55" stroke="#1e1e1e" stroke-width="4" fill="none"></path></g><g transform="translate(423.0207658224664 887.906743125667) rotate(0 0 13.273850931284642)"><path d="M4.54 14.07 C3.54 16.83, 2.53 19.58, 0 26.55 M4.54 14.07 C3.34 17.36, 2.15 20.64, 0 26.55" stroke="#1e1e1e" stroke-width="4" fill="none"></path></g></g><mask></mask><g transform="translate(346.44090154643925 924.6650312375202) rotate(0 83.29992675781253 12.5)"><text x="0" y="0" font-family="Virgil, Segoe UI Emoji" font-size="20px" fill="#1e1e1e" text-anchor="start" style="white-space: pre;" direction="ltr" dominant-baseline="text-before-edge">Network Request</text></g><g stroke-linecap="round"><g transform="translate(416.8943766803842 956.3180729653714) rotate(0 -33.69514028145193 25.526629215448963)"><path d="M0 0 C-6.13 4.94, -25.53 21.1, -36.76 29.61 C-47.99 38.12, -62.28 47.48, -67.39 51.05 M0 0 C-6.13 4.94, -25.53 21.1, -36.76 29.61 C-47.99 38.12, -62.28 47.48, -67.39 51.05" stroke="#1e1e1e" stroke-width="1" fill="none"></path></g><g transform="translate(416.8943766803842 956.3180729653714) rotate(0 -33.69514028145193 25.526629215448963)"><path d="M-56.48 35.87 C-59.1 39.52, -61.73 43.18, -67.39 51.05 M-56.48 35.87 C-60.83 41.93, -65.19 47.99, -67.39 51.05" stroke="#1e1e1e" stroke-width="1" fill="none"></path></g><g transform="translate(416.8943766803842 956.3180729653714) rotate(0 -33.69514028145193 25.526629215448963)"><path d="M-49.27 46.44 C-53.63 47.55, -57.99 48.66, -67.39 51.05 M-49.27 46.44 C-56.5 48.28, -63.73 50.12, -67.39 51.05" stroke="#1e1e1e" stroke-width="1" fill="none"></path></g></g><mask></mask><g stroke-linecap="round"><g transform="translate(427.10500967030794 959.3812675364125) rotate(0 23.484483921208323 29.610896433610435)"><path d="M0 0 C4.08 5.28, 16.68 21.78, 24.51 31.65 C32.33 41.52, 43.23 54.63, 46.97 59.22 M0 0 C4.08 5.28, 16.68 21.78, 24.51 31.65 C32.33 41.52, 43.23 54.63, 46.97 59.22" stroke="#1e1e1e" stroke-width="1" fill="none"></path></g><g transform="translate(427.10500967030794 959.3812675364125) rotate(0 23.484483921208323 29.610896433610435)"><path d="M31.66 50.17 C34.85 52.06, 38.04 53.94, 46.97 59.22 M31.66 50.17 C34.77 52.01, 37.87 53.84, 46.97 59.22" stroke="#1e1e1e" stroke-width="1" fill="none"></path></g><g transform="translate(427.10500967030794 959.3812675364125) rotate(0 23.484483921208323 29.610896433610435)"><path d="M41.06 42.45 C42.29 45.94, 43.52 49.44, 46.97 59.22 M41.06 42.45 C42.26 45.85, 43.46 49.25, 46.97 59.22" stroke="#1e1e1e" stroke-width="1" fill="none"></path></g></g><mask></mask><g stroke-linecap="round" transform="translate(299.47188696338264 1016.5609151093926) rotate(0 36.24781021409282 31.142470348811116)"><path d="M72.5 31.14 C72.5 32.77, 72.35 34.41, 72.05 36.01 C71.75 37.62, 71.31 39.22, 70.72 40.77 C70.14 42.31, 69.4 43.83, 68.54 45.28 C67.69 46.73, 66.68 48.13, 65.57 49.45 C64.46 50.76, 63.22 52.02, 61.88 53.16 C60.54 54.31, 59.08 55.38, 57.55 56.34 C56.02 57.29, 54.39 58.15, 52.7 58.89 C51.02 59.63, 49.25 60.26, 47.45 60.76 C45.65 61.26, 43.79 61.65, 41.92 61.9 C40.05 62.16, 38.14 62.28, 36.25 62.28 C34.36 62.28, 32.44 62.16, 30.58 61.9 C28.71 61.65, 26.84 61.26, 25.05 60.76 C23.25 60.26, 21.48 59.63, 19.79 58.89 C18.11 58.15, 16.47 57.29, 14.94 56.34 C13.41 55.38, 11.95 54.31, 10.62 53.16 C9.28 52.02, 8.03 50.76, 6.92 49.45 C5.81 48.13, 4.81 46.73, 3.95 45.28 C3.09 43.83, 2.36 42.31, 1.77 40.77 C1.19 39.22, 0.74 37.62, 0.45 36.01 C0.15 34.41, 0 32.77, 0 31.14 C0 29.52, 0.15 27.87, 0.45 26.27 C0.74 24.67, 1.19 23.06, 1.77 21.52 C2.36 19.97, 3.09 18.45, 3.95 17 C4.81 15.56, 5.81 14.15, 6.92 12.84 C8.03 11.52, 9.28 10.27, 10.62 9.12 C11.95 7.97, 13.41 6.9, 14.94 5.95 C16.47 4.99, 18.11 4.13, 19.79 3.39 C21.48 2.66, 23.25 2.03, 25.05 1.52 C26.84 1.02, 28.71 0.64, 30.58 0.38 C32.44 0.13, 34.36 0, 36.25 0 C38.14 0, 40.05 0.13, 41.92 0.38 C43.79 0.64, 45.65 1.02, 47.45 1.52 C49.25 2.03, 51.02 2.66, 52.7 3.39 C54.39 4.13, 56.02 4.99, 57.55 5.95 C59.08 6.9, 60.54 7.97, 61.88 9.12 C63.22 10.27, 64.46 11.52, 65.57 12.84 C66.68 14.15, 67.69 15.56, 68.54 17 C69.4 18.45, 70.14 19.97, 70.72 21.52 C71.31 23.06, 71.75 24.67, 72.05 26.27 C72.35 27.87, 72.42 30.33, 72.5 31.14 C72.57 31.95, 72.57 30.33, 72.5 31.14" stroke="#1e1e1e" stroke-width="1" fill="none"></path></g><g stroke-linecap="round" transform="translate(440.37883723127266 1023.7083535282753) rotate(0 44.926869288815936 33.18461564305176)"><path d="M89.85 33.18 C89.85 34.76, 89.7 36.35, 89.4 37.91 C89.09 39.47, 88.63 41.02, 88.03 42.53 C87.43 44.04, 86.68 45.54, 85.79 46.97 C84.91 48.4, 83.87 49.8, 82.72 51.13 C81.57 52.45, 80.28 53.73, 78.88 54.92 C77.48 56.11, 75.96 57.23, 74.35 58.26 C72.74 59.29, 71.01 60.25, 69.22 61.1 C67.42 61.95, 65.53 62.72, 63.59 63.37 C61.65 64.02, 59.63 64.58, 57.58 65.03 C55.54 65.47, 53.43 65.81, 51.32 66.03 C49.21 66.26, 47.06 66.37, 44.93 66.37 C42.8 66.37, 40.64 66.26, 38.53 66.03 C36.42 65.81, 34.31 65.47, 32.27 65.03 C30.22 64.58, 28.2 64.02, 26.26 63.37 C24.32 62.72, 22.43 61.95, 20.64 61.1 C18.84 60.25, 17.12 59.29, 15.51 58.26 C13.9 57.23, 12.37 56.11, 10.97 54.92 C9.58 53.73, 8.28 52.45, 7.13 51.13 C5.98 49.8, 4.95 48.4, 4.06 46.97 C3.17 45.54, 2.42 44.04, 1.82 42.53 C1.22 41.02, 0.76 39.47, 0.46 37.91 C0.15 36.35, 0 34.76, 0 33.18 C0 31.61, 0.15 30.02, 0.46 28.46 C0.76 26.9, 1.22 25.35, 1.82 23.84 C2.42 22.32, 3.17 20.83, 4.06 19.4 C4.95 17.97, 5.98 16.57, 7.13 15.24 C8.28 13.92, 9.58 12.64, 10.97 11.45 C12.37 10.26, 13.9 9.14, 15.51 8.11 C17.12 7.07, 18.84 6.12, 20.64 5.27 C22.43 4.42, 24.32 3.65, 26.26 3 C28.2 2.34, 30.22 1.79, 32.27 1.34 C34.31 0.9, 36.42 0.56, 38.53 0.34 C40.64 0.11, 42.8 0, 44.93 0 C47.06 0, 49.21 0.11, 51.32 0.34 C53.43 0.56, 55.54 0.9, 57.58 1.34 C59.63 1.79, 61.65 2.34, 63.59 3 C65.53 3.65, 67.42 4.42, 69.22 5.27 C71.01 6.12, 72.74 7.07, 74.35 8.11 C75.96 9.14, 77.48 10.26, 78.88 11.45 C80.28 12.64, 81.57 13.92, 82.72 15.24 C83.87 16.57, 84.91 17.97, 85.79 19.4 C86.68 20.83, 87.43 22.32, 88.03 23.84 C88.63 25.35, 89.09 26.9, 89.4 28.46 C89.7 30.02, 89.78 32.4, 89.85 33.18 C89.93 33.97, 89.93 32.4, 89.85 33.18" stroke="#1e1e1e" stroke-width="1" fill="none"></path></g><g stroke-linecap="round"><g transform="translate(313.76681054178766 1054.3402992386864) rotate(0 21.442361997287605 -6.636913780482473)"><path d="M0 0 C7.15 -2.21, 35.74 -11.06, 42.88 -13.27 M0 0 C7.15 -2.21, 35.74 -11.06, 42.88 -13.27" stroke="#1e1e1e" stroke-width="1" fill="none"></path></g></g><mask></mask><g stroke-linecap="round"><g transform="translate(314.7878598185881 1040.0454224009209) rotate(0 0 6.6369137804823595)"><path d="M0 0 C0 2.21, 0 11.06, 0 13.27 M0 0 C0 2.21, 0 11.06, 0 13.27" stroke="#1e1e1e" stroke-width="1" fill="none"></path></g></g><mask></mask><g stroke-linecap="round"><g transform="translate(464.8843937996014 1040.0454224009209) rotate(0 17.868642787846255 13.273827560964719)"><path d="M0 0 C5.96 4.42, 29.78 22.12, 35.74 26.55 M0 0 C5.96 4.42, 29.78 22.12, 35.74 26.55" stroke="#1e1e1e" stroke-width="1" fill="none"></path></g></g><mask></mask><g stroke-linecap="round"><g transform="translate(467.9475883706424 1065.5720282460502) rotate(0 12.252778284164378 -12.763302922564549)"><path d="M0 0 C4.08 -4.25, 20.42 -21.27, 24.51 -25.53 M0 0 C4.08 -4.25, 20.42 -21.27, 24.51 -25.53" stroke="#1e1e1e" stroke-width="1" fill="none"></path></g></g><mask></mask></svg>